<?xml version="1.0" encoding="utf-8"?>
<!-- Generator: Adobe Illustrator 24.1.2, SVG Export Plug-In . SVG Version: 6.00 Build 0)  -->
<svg version="1.1" id="Warstwa_3" xmlns="http://www.w3.org/2000/svg" xmlns:xlink="http://www.w3.org/1999/xlink" x="0px" y="0px"
	 viewBox="0 0 430 430" style="enable-background:new 0 0 430 430;" xml:space="preserve">
<style type="text/css">
	.st0{fill:#9cf4df;}
	.st1{fill:#0ea5e9;}
	.st2{fill:none;stroke:#0ea5e9;stroke-width:12.25;stroke-miterlimit:14;}
	.st3{fill-opacity:0;}
	.st4{fill:#131432;}
	.st5{fill:none;}
</style>
<g>
	<path class="st0" d="M215,381.4c-1.72,0-3.37-0.68-4.59-1.9L65.45,234.55c-20.59-20.56-31.92-47.91-31.92-77.01
		c0-29.09,11.34-56.44,31.93-77.01C86.05,59.94,113.4,48.6,142.48,48.6c27,0,52.52,9.79,72.52,27.71
		c23.11-20.7,53.67-30.51,84.77-27.01c24.74,2.78,47.14,13.58,64.77,31.24c20.59,20.59,31.93,47.95,31.93,77.02
		c0,29.05-11.34,56.39-31.94,76.98L219.59,379.5C218.37,380.72,216.72,381.4,215,381.4z M142.48,61.58
		c-25.61,0-49.7,9.99-67.84,28.13c-18.13,18.12-28.12,42.2-28.12,67.82c0,25.62,9.99,49.71,28.12,67.82L215,365.73l140.36-140.36
		l0,0c18.14-18.14,28.13-42.22,28.13-67.8c0-25.61-9.99-49.7-28.13-67.85c-15.54-15.55-35.26-25.07-57.04-27.51
		c-29.2-3.28-57.85,6.74-78.6,27.51l-0.12,0.12c-2.51,2.51-6.57,2.54-9.12,0.06l-0.13-0.12C192.14,71.58,168.06,61.58,142.48,61.58z
		"/>
	<path class="st1" d="M69.04,150.14c-0.43,0-0.87-0.05-1.31-0.14c-3.25-0.72-5.3-3.93-4.58-7.18c3.53-15.96,11.54-30.53,23.15-42.13
		c16.24-16.24,37.82-25.19,60.75-25.19c11.69,0,25,5.49,34.1,10.1c2.97,1.5,4.15,5.12,2.65,8.09c-1.5,2.97-5.12,4.15-8.09,2.65
		c-11.21-5.68-21.39-8.8-28.66-8.8c-19.72,0-38.27,7.69-52.24,21.66c-9.99,9.98-16.87,22.5-19.91,36.21
		C74.29,148.22,71.8,150.14,69.04,150.14z"/>
</g>
</svg>
