<!-- License: CC Attribution. Made by seyfdesigner: https://www.figma.com/@seyfdesigner -->
<svg width="24px" height="24px" viewBox="0 0 24 24" id="magicoon-Regular" xmlns="http://www.w3.org/2000/svg"><defs><style>.cls-1{fill:#41416e;}</style></defs><title>file</title><g id="file-Regular"><path id="file-Regular-2" data-name="file-Regular" class="cls-1" d="M19.237,7.177,14.823,2.763a1.736,1.736,0,0,0-1.237-.513H9A4.756,4.756,0,0,0,4.25,7V17A4.756,4.756,0,0,0,9,21.75h6A4.756,4.756,0,0,0,19.75,17V8.414A1.736,1.736,0,0,0,19.237,7.177ZM14.75,4.811,17.189,7.25H16.5A1.752,1.752,0,0,1,14.75,5.5ZM15,20.25H9A3.254,3.254,0,0,1,5.75,17V7A3.254,3.254,0,0,1,9,3.75h4.25V5.5A3.254,3.254,0,0,0,16.5,8.75h1.75V17A3.254,3.254,0,0,1,15,20.25Z"/></g></svg>